PathFileType	4	(X/Y/Z)	Patient4_TMGait_0pt7_02_left_34.trc.trc
DataRate	CameraRate	NumFrames	NumMarkers	Units	OrigDataRate	OrigDataStartFrame	OrigNumFrames
85.889570552147	85.889570552147	6	33	mm	85.889570552147	1	       141
Frame#	Time	Sacral			L.Shoulder			Chest			R.Shoulder			Neck			R.ASIS			L.ASIS			R.Thigh.Superior			R.Thigh.Lateral			R.Thigh.Inferior			R.Patella			L.Thigh.Superior			L.Thigh.Lateral			L.Thigh.Inferior			L.Patella			L.Shank.Superior			L.Shank.Lateral			L.Shank.Inferior			R.Shank.Superior			R.Shank.Lateral			R.Shank.Inferior			R.Heel			R.Midfoot.Superior			R.Midfoot.Lateral			R.Toe			L.Heel			L.Midfoot.Lateral			L.Midfoot.Superior			L.Toe			L.Elbow			L.Wrist			R.Elbow			R.Wrist			
		X1	Y1	Z1	X2	Y2	Z2	X3	Y3	Z3	X4	Y4	Z4	X5	Y5	Z5	X6	Y6	Z6	X7	Y7	Z7	X8	Y8	Z8	X9	Y9	Z9	X10	Y10	Z10	X11	Y11	Z11	X12	Y12	Z12	X13	Y13	Z13	X14	Y14	Z14	X15	Y15	Z15	X16	Y16	Z16	X17	Y17	Z17	X18	Y18	Z18	X19	Y19	Z19	X20	Y20	Z20	X21	Y21	Z21	X22	Y22	Z22	X23	Y23	Z23	X24	Y24	Z24	X25	Y25	Z25	X26	Y26	Z26	X27	Y27	Z27	X28	Y28	Z28	X29	Y29	Z29	X30	Y30	Z30	X31	Y31	Z31	X32	Y32	Z32	X33	Y33	Z33	

1	38.870000000000	873.261050160147	1020.946036808172	518.605047927240	1076.243609501448	1426.597307390388	311.624945773033	1188.084255639303	1348.851732633743	464.815794812936	1129.805937795516	1436.748865705556	642.185918282046	1100.468856251941	1490.001494342258	463.105398807590	1101.880192444084	938.214539709532	621.657996852501	1070.160429428280	958.149249702527	349.998183342290	1144.076457950322	742.016660738217	590.621803542315	1063.382956348307	633.403987675056	648.146925625060	1138.725178055910	582.916251678760	564.221644875352	1140.659777155485	491.430508393784	568.640989715520	1151.511654092766	782.731010227270	382.347621635042	1110.377413233354	659.577333952262	298.655393048937	1214.154257800372	594.802348978685	363.138676952338	1226.168937512784	502.752723952767	353.095728676992	1153.499931393062	439.830152879772	342.410131924508	1008.568888573512	412.718627055488	292.944908393538	984.306383695568	283.349431931867	342.563567638329	1105.471156601238	404.906163172962	575.937979015644	1030.460150707050	304.952579544360	638.799093352362	1063.720869307352	208.490026025076	572.645391588464	918.210870932718	48.884131625868	548.634008682962	1093.156001112927	98.116547528352	577.229351919198	1004.499397467935	39.627303768370	618.000196166123	1212.277403317554	39.246847190178	599.485603197795	789.798361841968	239.461950228915	378.467542526658	841.236311678404	188.130586498774	297.324798959482	945.935609238985	181.327817345206	318.765931966638	1007.742832365501	60.033306388786	288.769451131538	1016.166030547545	1074.401499452497	213.976377448401	1127.524297386681	834.973642911333	204.869935748450	1068.318135336589	1093.643145197453	768.882982940974	1183.636937290535	859.244454893922	739.849419572012	
2	38.881642857143	871.322522187223	1021.593421610525	519.813648963530	1073.956876710226	1426.691461596996	312.047397246267	1186.489700725029	1348.955850615847	464.656240771108	1129.318714707092	1437.006428986845	642.327885741190	1098.987996386632	1490.199857969497	463.351064922696	1100.097456395114	938.129363510508	621.932158612711	1067.800051778887	958.641747109923	350.351668505578	1139.798557926136	741.103200824514	590.611499787187	1058.577569708086	633.268974515634	648.719518752201	1132.844866023539	582.053958353138	564.403916959481	1133.644121021439	490.732083789870	568.796376746930	1151.714736379641	787.175805034589	383.007247948036	1114.158722112565	663.644446810002	298.396193756784	1219.010771807050	601.191238499948	363.237407769843	1233.641322732346	509.820643690863	352.623758999520	1163.132700427316	444.922393714967	341.782709689080	1019.238002925317	412.643835286622	293.057659249322	1000.300943801775	282.412250111332	342.068330593576	1098.223732167689	404.399220838283	576.138421418437	1022.960274612857	304.748752570986	639.084013225307	1055.691664198279	208.172388871621	572.724840614532	909.582069958557	48.800615056387	548.692123578863	1084.405852858726	97.880858914500	577.045595435415	995.857834993704	39.604928428197	618.085196973548	1203.641216887458	39.224775527722	599.590442998954	808.366947201646	230.495126219086	379.013091025098	861.066299893482	182.094836155297	297.090840912305	965.930737185106	179.699550306395	317.680518218860	1032.439537667072	61.699158558000	286.131332575098	1009.241568212501	1074.922424635452	216.108789671919	1103.360070703334	830.580558423250	207.459746446167	1078.101825186694	1092.789194347365	769.371867958856	1208.036495583155	869.023377427246	737.543921313189	
3	38.893285714286	869.406670782822	1022.215701517829	520.960736572386	1071.698646376797	1426.778949263526	312.460784209010	1184.916535879614	1349.037060956253	464.485144677940	1128.843403911419	1437.223009498558	642.465077737673	1097.529232220127	1490.378182607766	463.599231401931	1098.328159026321	938.033621648646	622.175599311149	1065.466828276565	959.097806777157	350.678983087710	1135.546021334253	740.180187845243	590.550916587019	1053.789921335640	633.126192484444	649.258597478984	1126.977449362182	581.176575725520	564.560019420238	1126.623247243987	490.044223020450	568.925097593554	1151.849404528473	791.511263907609	383.653643234914	1117.811734075352	667.629594723386	298.132938442560	1223.711709626451	607.481044592571	363.325474234591	1240.921837515161	516.794088277742	352.155052460316	1172.589394000493	449.947273330491	341.140089618016	1029.762086668342	412.499664173711	293.123463812186	1016.157650596208	281.446004520765	341.526995464434	1091.020825623645	403.896921835328	576.321653959991	1015.519515106566	304.532834550037	639.355267081030	1047.729687692782	207.848148948917	572.793543841688	901.051523004473	48.697094667513	548.746559578938	1075.755217475466	97.653125411569	576.871066200980	987.316436197885	39.569010458026	618.168555653774	1195.102345505008	39.203368245878	599.690616929560	826.825196175562	221.543222364620	379.464470295353	880.784578939825	176.049086972893	296.779823294097	985.784159669127	178.042454474659	316.562253803986	1056.964262331912	63.341198357926	283.492646356705	1002.254947945243	1075.487011723408	218.129534490543	1079.655290930442	826.517962742944	210.040117869668	1087.792505330279	1091.964413885056	769.830339781895	1232.099691123999	878.947328044342	735.170781268654	
4	38.904928571429	867.526820669479	1022.790108429259	521.979583160635	1069.487269290988	1426.856626979736	312.850410619922	1183.375511469575	1349.068920169795	464.282027388713	1128.389466493668	1437.353603773843	642.583491735160	1096.107740555670	1490.514726643501	463.847705237275	1096.571397892721	937.919833935902	622.348820321182	1063.178894644458	959.471436630272	350.943873365694	1131.289948580077	739.234098029025	590.409719844963	1048.954689017011	632.978256151549	649.741839061303	1121.046815688363	580.267573621394	564.686811015843	1119.503194467208	489.382720709018	569.023245324476	1151.834612082149	795.623053275716	384.266917735498	1121.194460225456	671.434641114170	297.856898864161	1228.087683074563	613.550332928483	363.378729147359	1247.810645826789	523.571078382399	351.691007437907	1181.714228143278	454.828648142536	340.481984921618	1040.097975127279	412.164886698313	293.062964965983	1031.864469979943	280.395114847548	340.894625875920	1083.805077970109	403.413918465066	576.486022451025	1008.094566494731	304.300560535602	639.609136729650	1039.810140681960	207.520872624465	572.851213244347	892.631343686558	48.558271022037	548.794118567615	1067.218771926890	97.441862587061	576.716627815281	978.888882170118	39.508907940838	618.248571554274	1186.672892084297	39.184672326571	599.781879239365	845.257220378143	212.528982269643	379.673452574302	900.510493033379	169.929862502693	296.296260756315	1005.540224487912	176.319480476438	315.392294196806	1081.369051267663	64.992430979496	280.929531306063	995.075595129678	1076.179374504371	219.940596025649	1056.711425011971	823.120039521558	212.635215029117	1097.391051757835	1091.214264552975	770.203496082675	1255.594327175147	889.332581479374	732.608895596009	
5	38.916571428571	865.692132890089	1023.299851618278	522.815106642737	1067.336191510023	1426.923249316442	313.202129632993	1181.872985457092	1349.028956776496	464.027521336850	1127.964484905969	1437.360973951122	642.668259998047	1094.735441799767	1490.591905806209	464.092839818045	1094.825006307449	937.787086383733	622.423629320962	1060.949428587340	959.723033565661	351.114448031908	1126.992742517355	738.255254802250	590.175468472478	1043.993102051925	632.832076068909	650.156559298856	1114.964232264152	579.315316518234	564.791596166588	1112.184799597510	488.765275981184	569.095865927795	1151.600805895492	799.415663217676	384.831933190623	1124.188957644726	674.974915892488	297.560595804704	1231.998040476876	619.291238852849	363.373687485529	1254.143540503446	530.064329638519	351.231219888948	1190.385885775956	459.499291768779	339.815004032743	1050.240859733319	411.529438221722	292.801050271542	1047.439092335048	279.212100641191	340.137972286115	1076.497459998153	402.963789090068	576.633125848536	1000.620279379676	304.052173238763	639.844937327043	1031.888119950387	207.198507583527	572.901602891253	884.308736563597	48.374256019846	548.832861084125	1058.786077496142	97.253730211681	576.591167813399	970.562941488697	39.418178398810	618.323789840353	1178.340275279698	39.171152690451	599.860447915731	863.774531401785	203.379504806115	379.499094024099	920.397324448535	163.683911539694	295.556994702237	1025.277053633553	174.506358325341	314.165157242206	1105.745637814453	66.700716333353	278.539880544317	987.586057713417	1077.080653094597	221.469605547631	1034.735800409431	820.639347311204	215.276173268425	1106.923433600521	1090.579719117276	770.436757599748	1278.348746658682	900.474612370204	729.746358501806	
6	38.928214285714	863.910084684221	1023.734670358317	523.427693206798	1065.256204050487	1426.979512534319	313.502530039304	1180.412562215823	1348.901144193122	463.705417513817	1127.573443680910	1437.219813521620	642.704296716806	1093.421625084358	1490.597844217977	464.328693224545	1093.087826799577	937.640963440523	622.386581430446	1058.790726683663	959.822838133157	351.164764003551	1122.618305457615	737.240768050868	589.856690931996	1038.827059748578	632.699298304664	650.501413810875	1108.646097294605	578.316677272899	564.892864038527	1104.584428422489	488.210335726987	569.157777584232	1151.097869092642	802.813480259206	385.337295013851	1126.706072896754	678.177835748710	297.239015971178	1235.336532012563	624.605459574346	363.288758019732	1259.794706596201	536.194166082945	350.774636391472	1198.512204060065	463.896118090251	339.154427649546	1060.208580116470	410.502738314607	292.274296272280	1062.901381392981	277.861768443940	339.241462988919	1069.015505175608	402.559659199594	576.769056189677	993.025733960163	303.793973824378	640.066470267826	1023.914217807495	206.893622751872	572.952782069306	876.058195766122	48.143084443809	548.862669099797	1050.433937719144	97.092915650662	576.500642832139	962.312887964086	39.295612083949	618.392949294477	1170.079906264872	39.165501881395	599.923344701733	882.477128397481	194.044366274420	378.822519108421	940.588022257396	157.281548936604	294.502327460276	1045.067949044798	172.595887932526	312.893374997651	1130.178240757347	68.522882466072	276.442160542086	979.707359361350	1078.260371271205	222.675755526220	1013.851508475129	819.225871500023	217.993942763322	1116.423629992712	1090.095926644372	770.479614674947	1300.229209380349	912.603650717470	726.496250105039	
